<?xml version="1.0" encoding="UTF-8" standalone="no"?>
<!-- Created with Inkscape (http://www.inkscape.org/) -->

<svg
   xmlns:dc="http://purl.org/dc/elements/1.1/"
   xmlns:cc="http://creativecommons.org/ns#"
   xmlns:rdf="http://www.w3.org/1999/02/22-rdf-syntax-ns#"
   xmlns:svg="http://www.w3.org/2000/svg"
   xmlns="http://www.w3.org/2000/svg"
   xmlns:sodipodi="http://sodipodi.sourceforge.net/DTD/sodipodi-0.dtd"
   xmlns:inkscape="http://www.inkscape.org/namespaces/inkscape"
   width="315"
   height="315"
   viewBox="0 0 315.00001 315"
   id="svg2"
   version="1.1"
   inkscape:version="0.91 r13725"
   sodipodi:docname="g.svg">
  <defs
     id="defs4" />
  <sodipodi:namedview
     id="base"
     pagecolor="#ffffff"
     bordercolor="#666666"
     borderopacity="1.0"
     inkscape:pageopacity="0.0"
     inkscape:pageshadow="2"
     inkscape:zoom="2.86"
     inkscape:cx="157.5"
     inkscape:cy="150"
     inkscape:document-units="px"
     inkscape:current-layer="layer1"
     showgrid="false"
     inkscape:window-width="1920"
     inkscape:window-height="1027"
     inkscape:window-x="-8"
     inkscape:window-y="-8"
     inkscape:window-maximized="1"
     units="px">
    <inkscape:grid
       type="xygrid"
       id="grid4149" />
  </sodipodi:namedview>
  <metadata
     id="metadata7">
    <rdf:RDF>
      <cc:Work
         rdf:about="">
        <dc:format>image/svg+xml</dc:format>
        <dc:type
           rdf:resource="http://purl.org/dc/dcmitype/StillImage" />
        <dc:title></dc:title>
      </cc:Work>
    </rdf:RDF>
  </metadata>
  <g
     inkscape:label="Layer 1"
     inkscape:groupmode="layer"
     id="layer1"
     transform="translate(0,-737.36215)">
    <g
       style="font-style:normal;font-variant:normal;font-weight:normal;font-stretch:normal;font-size:180px;line-height:125%;font-family:Georgia;-inkscape-font-specification:'Georgia, Normal';text-align:start;letter-spacing:0px;word-spacing:0px;writing-mode:lr-tb;text-anchor:start;opacity:0.98999999;fill:none;fill-opacity:1;stroke:#000000;stroke-width:1px;stroke-linecap:butt;stroke-linejoin:miter;stroke-opacity:1"
       id="text3340"
       transform="translate(-202.70856,387.54879)">
      <path
         d="m 394.88141,523.39734 q 3.51562,3.33984 5.53711,7.55859 2.02148,4.21875 2.02148,10.45899 0,6.24023 -2.72461,11.68945 -2.72461,5.53711 -8.26172,9.58008 -5.88867,4.13086 -14.0625,6.41601 -8.17382,2.28516 -20.21484,2.28516 -19.6875,0 -29.44336,-5.80078 -9.75586,-5.71289 -9.75586,-16.78711 0,-8.96484 7.03125,-14.15039 7.03125,-5.18555 17.92969,-5.625 l 0,-1.23047 q -2.63672,-0.79102 -5.44922,-1.93359 -2.8125,-1.23047 -4.83398,-2.8125 -2.28516,-1.84571 -3.69141,-4.30664 -1.40625,-2.54883 -1.40625,-6.24024 0,-4.6582 3.25195,-8.52539 3.33985,-3.95508 10.01953,-6.76758 l 0,-1.31836 q -8.4375,-3.95507 -13.0957,-10.10742 -4.6582,-6.24023 -4.6582,-14.41406 0,-12.30469 9.14062,-20.21484 9.22852,-7.91016 23.55469,-7.91016 3.95508,0 7.82227,0.79101 3.95507,0.79102 7.99804,2.02149 l 30.23438,0 0,8.4375 -20.39063,0 0,0.52734 q 3.25196,3.7793 4.83399,8.34961 1.58203,4.57031 1.58203,8.96485 0,11.42578 -9.31641,19.33593 -9.22851,7.91016 -21.5332,7.91016 l -10.63477,0 q -2.02148,0.70312 -4.21875,2.54883 -2.19726,1.8457 -2.19726,5.00976 0,3.25196 1.8457,5.00977 1.8457,1.66992 4.48242,2.28516 2.54883,0.70312 5.88867,0.8789 3.42774,0.17578 7.03125,0.26367 3.86719,0.0879 10.54688,0.52735 6.76758,0.43945 9.58008,0.52734 4.04297,0.17578 8.08594,1.93359 4.13085,1.75782 7.4707,4.83399 z m -23.73047,-51.41602 q 0,-10.2832 -4.21875,-16.34765 -4.13086,-6.15235 -11.68945,-6.15235 -4.13086,0 -7.11914,1.75782 -2.90039,1.66992 -4.7461,4.83398 -1.75781,2.90039 -2.54883,7.03125 -0.70312,4.04297 -0.70312,8.34961 0,9.75586 4.21875,15.9082 4.30664,6.15235 11.07422,6.15235 7.55859,0 11.60156,-6.06446 4.13086,-6.15234 4.13086,-15.46875 z m 16.875,72.68555 q 0,-4.92187 -2.28516,-8.08594 -2.28515,-3.16406 -6.94336,-4.30664 -2.46093,-0.35156 -10.10742,-0.79101 -7.64648,-0.43946 -17.7539,-0.43946 -9.49219,1.84571 -13.53516,6.15235 -3.95508,4.39453 -3.95508,11.25 0,3.07617 1.31836,5.88867 1.31836,2.8125 4.57031,5.18555 3.07618,2.28515 8.26172,3.6914 5.18555,1.49414 12.65625,1.49414 12.91992,0 20.30274,-5.00976 7.4707,-4.92188 7.4707,-15.0293 z"
         style="fill:none;fill-opacity:1;stroke:#000000;stroke-opacity:1"
         id="path3345"
         inkscape:connector-curvature="0" />
    </g>
    <rect
       style="opacity:0.98999999;fill:none;fill-rule:evenodd;stroke:#000000;stroke-width:0.67101908px;stroke-linecap:butt;stroke-linejoin:miter;stroke-opacity:1"
       id="rect4147"
       width="208.77235"
       height="212.83911"
       x="-848.51257"
       y="-627.80481"
       transform="matrix(-0.70709864,-0.70711493,0.70709864,-0.70711493,0,0)" />
  </g>
</svg>
